<svg xmlns="http://www.w3.org/2000/svg" xmlns:xlink="http://www.w3.org/1999/xlink" xmlns:xodm="http://www.corel.com/coreldraw/odm/2003" width="406.839" height="406.839" version="1.1" viewBox="0 0 732.47 732.47" xml:space="preserve" style="shape-rendering:geometricPrecision;text-rendering:geometricPrecision;image-rendering:optimizeQuality;fill-rule:evenodd;clip-rule:evenodd"><defs><style type="text/css">.fil0,.fil1{fill:url(#id0);fill-rule:nonzero}.fil1{fill:url(#id1)}</style><linearGradient id="id0" x1="15.71" x2="3619.46" y1="361.05" y2="361.05" gradientUnits="userSpaceOnUse"><stop offset="0" style="stop-opacity:1;stop-color:#da8cff"/><stop offset="1" style="stop-opacity:1;stop-color:#9a55ff"/></linearGradient><linearGradient id="id1" x1="-99.95" x2="4683.24" y1="358.98" y2="358.98" gradientUnits="userSpaceOnUse" xlink:href="#id0"/></defs><g id="Layer_x0020_1"><metadata id="CorelCorpID_0Corel-Layer"/><g id="_2912074490704"><path d="M311.6 637.39l-0.26 -161.43 -112.41 0 1.47 111.6c-190.5,-137.95 -130.35,-486.25 165.87,-497.3 18.02,-0.21 36.93,1.85 56.31,5.15l-0.01 270.5 108.89 -1.17 2.56 -218.41c59.88,47.47 106.86,118.2 108.83,219.9 -2.51,106.63 -45.84,174.69 -111.34,221.8l2.29 -112.07 -112.41 0 -0.05 161.34c-18.16,3.51 -36.52,5.36 -55.08,5.48 -18.33,-0.21 -36.56,-1.82 -54.67,-5.4zm-0.64 -271.13l-0.01 -165.88c-59.16,11.14 -106.19,56.1 -110.62,165.9l110.63 -0.02z" class="fil0"/><path d="M688.13 191.78c14.45,26.61 25.64,54.85 33.13,84.14 7.28,28.49 11.16,58.5 11.22,89.53l-62.2 0c-0.05,-25.13 -3.34,-50.01 -9.51,-74.17 -6.32,-24.73 -15.54,-48.15 -27.3,-69.79l27.32 -14.88 -27.44 14.88c-2.7,-4.97 -4.73,-8.6 -6.1,-10.89 -1.61,-2.69 -3.85,-6.24 -6.73,-10.63 -27.53,-42.08 -65.19,-77.17 -109.86,-101.33 -42.52,-23.01 -91.54,-36.2 -144.38,-36.2 -83.9,0 -159.86,34 -214.84,88.98 -54.98,54.97 -88.99,130.93 -88.99,214.82 0,83.89 34.01,159.84 88.99,214.82 54.98,54.97 130.94,88.98 214.84,88.98 73.49,0 140.85,-26.04 193.33,-69.38 45.63,-37.68 80.07,-88.38 97.6,-146.38l-291.05 -2.16 0.24 -62.2 352.65 2.62 12.38 -0c-0.63,15 -2.88,29.35 -5.46,42.84 -16.31,85.35 -62.22,160.17 -126.6,213.34 -63.37,52.33 -144.59,83.77 -233.09,83.77 -101.14,0 -192.71,-40.99 -258.99,-107.27 -66.28,-66.28 -107.28,-157.84 -107.28,-258.96 0,-101.13 41,-192.69 107.28,-258.96 66.28,-66.28 157.85,-107.27 258.99,-107.27 63.43,0 122.49,15.94 173.9,43.76 54.02,29.23 99.46,71.49 132.54,122.06 2.17,3.32 4.82,7.6 7.95,12.83 3.35,5.6 5.87,9.97 7.56,13.08l-0.09 0.05z" class="fil1"/></g></g></svg>